Coordinates
version=1
nRows=14
nColumns=36
inDegrees=yes

Units are S.I. units (second, meters, Newtons, ...)
If the header above contains a line with 'inDegrees', this indicates whether rotational values are in degrees (yes) or radians (no).

endheader
time	pelvis_tilt	pelvis_list	pelvis_rotation	pelvis_tx	pelvis_ty	pelvis_tz	hip_flexion_r	hip_adduction_r	hip_rotation_r	knee_angle_r	knee_angle_r_beta	ankle_angle_r	subtalar_angle_r	mtp_angle_r	hip_flexion_l	hip_adduction_l	hip_rotation_l	knee_angle_l	knee_angle_l_beta	ankle_angle_l	subtalar_angle_l	mtp_angle_l	lumbar_extension	lumbar_bending	lumbar_rotation	arm_flex_r	arm_add_r	arm_rot_r	elbow_flex_r	pro_sup_r	arm_flex_l	arm_add_l	arm_rot_l	elbow_flex_l	pro_sup_l
      1.19000000	     -0.19654251	     -0.81197926	      2.16532951	     -0.70267957	      1.49383318	     -0.57412114	      2.91259363	      0.60555981	     -7.80626243	     27.62026894	      0.48206463	     -9.72225982	    -15.05655478	     -5.30993717	      8.93160621	     -3.28998670	     -2.96138442	     33.68734043	      0.58795501	    -16.24637690	     -7.62702312	     -5.30993717	     -2.74823841	      2.68943762	     -7.33786316	    119.14082612	    -35.43093059	     53.41725063	     95.50164542	    104.88105505	    127.58029453	    -66.80068374	     69.72833240	    102.36674588	     82.34772076
      1.20000000	     -0.05824728	     -0.85686508	      2.12409024	     -0.69155592	      1.49619821	     -0.57442636	      3.15603127	      0.55216392	     -8.19026721	     25.87686896	      0.45163656	    -10.93200278	    -13.72519085	     -5.69827584	      8.52628685	     -3.34945634	     -3.64861984	     31.17803991	      0.54415945	    -16.17862793	     -7.16793416	     -5.69827584	     -2.93936639	      2.79771515	     -7.60666050	    122.02651570	    -37.27016813	     56.76854687	     95.48417557	    106.08036532	    134.35728159	    -68.81707579	     77.38363601	    102.57266738	     82.81575568
      1.21000000	     -0.18931272	     -0.92232217	      2.07243737	     -0.68046977	      1.49722028	     -0.57456976	      3.77420081	      0.51867066	     -8.60455795	     24.31412479	      0.42436153	    -11.67329022	    -11.85829840	     -6.05085865	      8.49001509	     -3.44803201	     -4.30105504	     28.77687482	      0.50225121	    -15.88906253	     -5.92236610	     -6.05085865	     -2.80635430	      2.86735402	     -7.63971745	    125.04225513	    -39.28865599	     60.35823363	     95.63846290	    105.49212229	    141.14273443	    -70.21331979	     84.97480446	    102.90739858	     81.92484539
      1.22000000	     -0.42704869	     -1.01440509	      2.06760474	     -0.66951330	      1.49700450	     -0.57461986	      4.51066894	      0.57687510	     -8.82074158	     22.74855605	      0.39703720	    -12.62595345	    -10.08966522	     -6.47752955	      8.64170555	     -3.55360129	     -4.84914850	     26.46637700	      0.46192542	    -15.69231944	     -4.41953744	     -6.47752955	     -2.59815122	      2.93302608	     -8.00314083	    127.97761334	    -40.83792407	     63.82395927	     95.37494716	    104.38398220	    150.67269485	    -71.43223113	     95.26591637	    103.38186871	     80.40485435
      1.23000000	     -0.66354616	     -1.10805652	      2.05567629	     -0.65870625	      1.49562909	     -0.57475918	      5.33086453	      0.63364333	     -8.89371352	     21.35689533	      0.37274814	    -13.47358682	     -8.18753396	     -6.51035759	      8.81679473	     -3.61642238	     -5.30018661	     24.21550014	      0.42264021	    -15.56970519	     -2.78158843	     -6.51035759	     -2.30073679	      2.93593031	     -6.93337663	    132.55896407	    -43.77940048	     69.17101181	     95.46099822	    104.71652628	    152.91823331	    -71.02708952	     97.97617855	    102.66662028	     80.29105335
      1.24000000	     -0.86336676	     -1.15736648	      2.06791475	     -0.64802141	      1.49315037	     -0.57479365	      6.21025514	      0.61233768	     -9.08220090	     20.17971966	      0.35220255	    -14.06833239	     -6.09778340	     -6.82440712	      8.98146263	     -3.63002413	     -5.64866756	     22.00001256	      0.38397265	    -15.67454433	     -1.15973276	     -6.82440712	     -2.24698945	      2.91679650	     -8.06264655	    134.93359010	    -44.18840050	     71.91799875	     94.23166714	    102.52570027	    168.15502249	    -71.55167173	    113.98555548	    103.40461364	     78.59808691
      1.25000000	     -0.88822230	     -1.24732274	      2.05226661	     -0.63752651	      1.48981839	     -0.57486830	      6.88273800	      0.61634439	     -9.37911736	     18.95516402	      0.33083002	    -14.48527323	     -3.79903347	     -6.85080152	      8.96948586	     -3.71090542	     -6.00134130	     19.79661185	      0.34551606	    -15.90566084	      0.60360164	     -6.85080152	     -2.30274053	      2.92662921	     -6.99178636	    140.39769954	    -46.58816895	     78.13405045	     93.73691671	    102.98565959	    170.53020906	    -70.82705615	    116.67022819	    102.66285142	     78.38422518
      1.26000000	     -0.82417285	     -1.36881105	      2.04983612	     -0.62710521	      1.48567509	     -0.57478352	      7.38605620	      0.67677445	     -9.73452421	     17.56812043	      0.30662154	    -14.96028644	     -1.54955726	     -6.87598247	      8.86582213	     -3.85666297	     -6.43009687	     17.59012059	      0.30700552	    -16.26723505	      2.56194600	     -6.87598247	     -2.50173416	      2.93005875	     -5.97362648	    146.43177201	    -48.68080054	     85.01130864	     93.04894080	    103.39075421	    173.62789039	    -70.00348708	    120.17787056	    102.08517068	     78.26021618
      1.27000000	     -0.77461920	     -1.47014622	      2.02051704	     -0.61670731	      1.48060168	     -0.57450411	      7.86028696	      0.76365836	     -9.99240077	     16.06543177	      0.28039468	    -15.63450833	      0.45368367	     -6.90166971	      8.74847831	     -3.97059092	     -6.78567646	     15.37477798	      0.26834050	    -16.76371284	      4.31194491	     -6.90166971	     -2.67822335	      2.83479987	     -4.96420472	    152.75150524	    -50.44025324	     92.34344117	     92.20514456	    103.86938820	    176.66570213	    -69.07302294	    123.62602770	    101.47274577	     78.22549202
      1.28000000	     -0.63490399	     -1.49671789	      2.06648704	     -0.60635286	      1.47468657	     -0.57436089	      8.20015038	      0.76278949	    -10.33402172	     14.53541941	      0.25369093	    -16.34471494	      2.30859702	     -6.92920906	      8.55020882	     -3.99231566	     -7.13416407	     13.20033862	      0.23038937	    -17.26836783	      5.71172992	     -6.92920906	     -2.97793566	      2.67597289	     -3.67884636	    160.18871133	    -51.83798925	    100.58410012	     91.32802978	    104.36045958	    178.02378577	    -68.16304053	    125.40302033	    100.82400627	     78.16842269
      1.29000000	     -0.48083056	     -1.53412956	      2.12037268	     -0.59609175	      1.46779027	     -0.57421322	      8.52832366	      0.78097149	    -10.73272628	     13.06114441	      0.22795997	    -17.06631171	      3.68728337	     -6.96651574	      8.40108195	     -4.04159858	     -7.59452624	     11.17347484	      0.19501392	    -17.79843098	      6.91836701	     -6.96651574	     -3.37262127	      2.62239388	     -2.11529742	    168.91117346	    -52.50027935	    110.14143446	     90.55637824	    104.44039034	    178.00821181	    -67.56457719	    125.25211788	     99.98135045	     77.95220550
      1.30000000	     -0.23908208	     -1.55590281	      2.19342106	     -0.58581967	      1.45994965	     -0.57406459	      8.76696614	      0.77476926	    -11.08375653	     11.69278482	      0.20407759	    -17.57835162	      4.58417435	     -6.99859754	      8.23193085	     -4.07412037	     -8.06229411	      9.36546775	      0.16345825	    -18.13290583	      7.93556696	     -6.99859754	     -3.70006329	      2.56622745	     -0.95251453	    175.77456928	    -52.44004661	    117.85951442	     89.22393062	    104.09777868	    178.37092244	    -67.10794012	    125.41750261	     98.99693861	     77.85395234
      1.31000000	      0.02027385	     -1.58756859	      2.30621307	     -0.57553660	      1.45112279	     -0.57399867	      9.01692945	      0.77083972	    -11.37780592	     10.48773419	      0.18304549	    -17.83184475	      4.99749052	     -7.01293474	      8.14170049	     -4.09904364	     -8.46619709	      7.80088987	      0.13615121	    -18.26961697	      8.31422762	     -7.01293474	     -3.64878196	      2.53037131	     -0.57937327	    178.56590365	    -52.21138821	    121.47419158	     86.95064235	    103.87949086	    178.89583027	    -66.97618702	    125.78704076	     97.91853201	     77.88361858
      1.32000000	      0.28570803	     -1.62149918	      2.39702926	     -0.56524335	      1.44128252	     -0.57388919	      9.29358052	      0.77808910	    -11.65182053	      9.42356449	      0.16447223	    -17.96419124	      5.22407814	     -7.03331572	      8.10382343	     -4.12745694	     -8.78472332	      6.41006305	      0.11187671	    -18.21181318	      8.32172645	     -7.03331572	     -3.38373363	      2.45086607	     -0.55947659	    179.25858832	    -52.17020029	    123.07758933	     84.26082795	    103.15670575	    179.18048934	    -67.02362406	    125.81109786	     96.83604263	     77.86399084
